<svg width="49" height="49" viewBox="0 0 49 49" fill="none" xmlns="http://www.w3.org/2000/svg">
<path fill-rule="evenodd" clip-rule="evenodd" d="M37.855 20.2265L37.855 1.66513C37.855 0.746428 38.5693 6.74367e-06 39.5514 6.91538e-06L46.5153 8.13299e-06C47.4081 8.28909e-06 48.1223 0.746429 48.1223 1.66513L48.1223 46.4733C48.1223 47.392 47.4081 48.1374 46.5153 48.1374L39.5514 48.1374C38.5693 48.1374 37.855 47.392 37.855 46.4733L37.855 27.9118L3.92834 47.508C3.12482 47.9696 2.14273 47.9696 1.3392 47.508C0.535676 47.0464 -8.07679e-06 46.1939 -7.91538e-06 45.2707C-6.21573e-06 35.5498 -2.20106e-06 12.5886 -5.01253e-07 2.86683C-3.39998e-07 1.94456 0.535684 1.09195 1.33921 0.63037C2.14274 0.16879 3.12483 0.168724 3.92835 0.629412L37.855 20.2265Z" fill="white"/>
</svg>
